<svg width="22" height="22" viewBox="0 0 22 22" fill="none" xmlns="http://www.w3.org/2000/svg">
<path fill-rule="evenodd" clip-rule="evenodd" d="M12 1V2V4V5H10V4V2V1H12ZM1 10H2H4H5V12H4H2H1V10ZM18 10H17V12H18H20H21V10H20H18ZM12 17V18V20V21H10V20V18V17H12ZM16.6568 18.0711L17.364 18.7782L18.7782 17.364L18.0711 16.6569L16.6568 15.2427L15.9497 14.5356L14.5355 15.9498L15.2426 16.6569L16.6568 18.0711ZM6.05023 7.46451L5.34312 6.7574L3.92891 5.34319L3.2218 4.63608L4.63602 3.22187L5.34313 3.92897L6.75734 5.34319L7.46445 6.05029L6.05023 7.46451ZM18.0711 5.34309L18.7782 4.63599L17.364 3.22177L16.6568 3.92888L15.2426 5.34309L14.5355 6.0502L15.9497 7.46441L16.6568 6.75731L18.0711 5.34309ZM7.46445 15.9497L6.75734 16.6568L5.34312 18.071L4.63602 18.7781L3.2218 17.3639L3.92891 16.6568L5.34313 15.2426L6.05023 14.5355L7.46445 15.9497ZM9 11C9 9.89543 9.89543 9 11 9C12.1046 9 13 9.89543 13 11C13 12.1046 12.1046 13 11 13C9.89543 13 9 12.1046 9 11ZM11 7C8.79086 7 7 8.79086 7 11C7 13.2091 8.79086 15 11 15C13.2091 15 15 13.2091 15 11C15 8.79086 13.2091 7 11 7Z" fill="#4B5EFC"/>
<path d="M12 1H12.5C12.5 0.723858 12.2761 0.5 12 0.5V1ZM12 5V5.5C12.2761 5.5 12.5 5.27614 12.5 5H12ZM10 5H9.5C9.5 5.27614 9.72386 5.5 10 5.5V5ZM10 1V0.5C9.72386 0.5 9.5 0.723858 9.5 1H10ZM1 10V9.5C0.723858 9.5 0.5 9.72386 0.5 10H1ZM5 10H5.5C5.5 9.72386 5.27614 9.5 5 9.5V10ZM5 12V12.5C5.27614 12.5 5.5 12.2761 5.5 12H5ZM1 12H0.5C0.5 12.2761 0.723858 12.5 1 12.5V12ZM17 10V9.5C16.7239 9.5 16.5 9.72386 16.5 10H17ZM17 12H16.5C16.5 12.2761 16.7239 12.5 17 12.5V12ZM21 12V12.5C21.2761 12.5 21.5 12.2761 21.5 12H21ZM21 10H21.5C21.5 9.72386 21.2761 9.5 21 9.5V10ZM12 17H12.5C12.5 16.7239 12.2761 16.5 12 16.5V17ZM12 21V21.5C12.2761 21.5 12.5 21.2761 12.5 21H12ZM10 21H9.5C9.5 21.2761 9.72386 21.5 10 21.5V21ZM10 17V16.5C9.72386 16.5 9.5 16.7239 9.5 17H10ZM17.364 18.7782L17.0104 19.1318C17.2057 19.327 17.5222 19.327 17.7175 19.1318L17.364 18.7782ZM16.6568 18.0711L16.3033 18.4247L16.3033 18.4247L16.6568 18.0711ZM18.7782 17.364L19.1317 17.7176C19.327 17.5223 19.327 17.2057 19.1317 17.0105L18.7782 17.364ZM18.0711 16.6569L18.4246 16.3034L18.4246 16.3034L18.0711 16.6569ZM15.9497 14.5356L16.3033 14.182C16.108 13.9868 15.7914 13.9868 15.5962 14.182L15.9497 14.5356ZM14.5355 15.9498L14.182 15.5962C14.0882 15.69 14.0355 15.8172 14.0355 15.9498C14.0355 16.0824 14.0882 16.2096 14.182 16.3034L14.5355 15.9498ZM15.2426 16.6569L15.5962 16.3034L15.5962 16.3034L15.2426 16.6569ZM5.34312 6.7574L4.98957 7.11095L4.98957 7.11095L5.34312 6.7574ZM6.05023 7.46451L5.69668 7.81806C5.89194 8.01332 6.20852 8.01332 6.40379 7.81806L6.05023 7.46451ZM3.92891 5.34319L4.28247 4.98963L4.28247 4.98963L3.92891 5.34319ZM3.2218 4.63608L2.86825 4.28253C2.77448 4.37629 2.7218 4.50347 2.7218 4.63608C2.7218 4.76869 2.77448 4.89586 2.86825 4.98963L3.2218 4.63608ZM4.63602 3.22187L4.98957 2.86831C4.8958 2.77454 4.76863 2.72187 4.63602 2.72187C4.50341 2.72187 4.37623 2.77454 4.28247 2.86831L4.63602 3.22187ZM5.34313 3.92897L4.98957 4.28253L4.98957 4.28253L5.34313 3.92897ZM6.75734 5.34319L6.40379 5.69674L6.40379 5.69674L6.75734 5.34319ZM7.46445 6.05029L7.818 6.40385C8.01326 6.20858 8.01326 5.892 7.818 5.69674L7.46445 6.05029ZM18.7782 4.63599L19.1317 4.98954C19.327 4.79428 19.327 4.4777 19.1317 4.28243L18.7782 4.63599ZM18.0711 5.34309L18.4246 5.69665L18.4246 5.69665L18.0711 5.34309ZM17.364 3.22177L17.7175 2.86822C17.6237 2.77445 17.4966 2.72177 17.364 2.72177C17.2313 2.72177 17.1042 2.77445 17.0104 2.86822L17.364 3.22177ZM16.6568 3.92888L17.0104 4.28243L17.0104 4.28243L16.6568 3.92888ZM15.2426 5.34309L14.8891 4.98954L14.8891 4.98954L15.2426 5.34309ZM14.5355 6.0502L14.182 5.69665C13.9867 5.89191 13.9867 6.20849 14.182 6.40375L14.5355 6.0502ZM15.9497 7.46441L15.5962 7.81797C15.7914 8.01323 16.108 8.01323 16.3033 7.81797L15.9497 7.46441ZM16.6568 6.75731L17.0104 7.11086L17.0104 7.11086L16.6568 6.75731ZM6.75734 16.6568L6.40379 16.3033L6.40379 16.3033L6.75734 16.6568ZM7.46445 15.9497L7.818 16.3033C7.91177 16.2095 7.96445 16.0823 7.96445 15.9497C7.96445 15.8171 7.91177 15.6899 7.818 15.5962L7.46445 15.9497ZM5.34312 18.071L5.69668 18.4246L5.69668 18.4246L5.34312 18.071ZM4.63602 18.7781L4.28246 19.1317C4.47773 19.3269 4.79431 19.3269 4.98957 19.1317L4.63602 18.7781ZM3.2218 17.3639L2.86825 17.0104C2.77448 17.1041 2.7218 17.2313 2.7218 17.3639C2.7218 17.4965 2.77448 17.6237 2.86825 17.7175L3.2218 17.3639ZM3.92891 16.6568L4.28246 17.0104L4.28247 17.0104L3.92891 16.6568ZM5.34313 15.2426L5.69668 15.5962L5.69668 15.5962L5.34313 15.2426ZM6.05023 14.5355L6.40379 14.1819C6.20852 13.9867 5.89194 13.9867 5.69668 14.1819L6.05023 14.5355ZM12.5 2V1H11.5V2H12.5ZM12.5 4V2H11.5V4H12.5ZM12.5 5V4H11.5V5H12.5ZM10 5.5H12V4.5H10V5.5ZM9.5 4V5H10.5V4H9.5ZM9.5 2V4H10.5V2H9.5ZM9.5 1V2H10.5V1H9.5ZM12 0.5H10V1.5H12V0.5ZM2 9.5H1V10.5H2V9.5ZM4 9.5H2V10.5H4V9.5ZM5 9.5H4V10.5H5V9.5ZM5.5 12V10H4.5V12H5.5ZM4 12.5H5V11.5H4V12.5ZM2 12.5H4V11.5H2V12.5ZM1 12.5H2V11.5H1V12.5ZM0.5 10V12H1.5V10H0.5ZM17 10.5H18V9.5H17V10.5ZM17.5 12V10H16.5V12H17.5ZM18 11.5H17V12.5H18V11.5ZM20 11.5H18V12.5H20V11.5ZM21 11.5H20V12.5H21V11.5ZM20.5 10V12H21.5V10H20.5ZM20 10.5H21V9.5H20V10.5ZM18 10.5H20V9.5H18V10.5ZM12.5 18V17H11.5V18H12.5ZM12.5 20V18H11.5V20H12.5ZM12.5 21V20H11.5V21H12.5ZM10 21.5H12V20.5H10V21.5ZM9.5 20V21H10.5V20H9.5ZM9.5 18V20H10.5V18H9.5ZM9.5 17V18H10.5V17H9.5ZM12 16.5H10V17.5H12V16.5ZM17.7175 18.4247L17.0104 17.7176L16.3033 18.4247L17.0104 19.1318L17.7175 18.4247ZM18.4246 17.0105L17.0104 18.4247L17.7175 19.1318L19.1317 17.7176L18.4246 17.0105ZM17.7175 17.0105L18.4246 17.7176L19.1317 17.0105L18.4246 16.3034L17.7175 17.0105ZM16.3033 15.5962L17.7175 17.0105L18.4246 16.3034L17.0104 14.8891L16.3033 15.5962ZM15.5962 14.8891L16.3033 15.5962L17.0104 14.8891L16.3033 14.182L15.5962 14.8891ZM14.8891 16.3034L16.3033 14.8891L15.5962 14.182L14.182 15.5962L14.8891 16.3034ZM15.5962 16.3034L14.8891 15.5962L14.182 16.3034L14.8891 17.0105L15.5962 16.3034ZM17.0104 17.7176L15.5962 16.3034L14.8891 17.0105L16.3033 18.4247L17.0104 17.7176ZM4.98957 7.11095L5.69668 7.81806L6.40379 7.11095L5.69668 6.40385L4.98957 7.11095ZM3.57536 5.69674L4.98957 7.11095L5.69668 6.40385L4.28247 4.98963L3.57536 5.69674ZM2.86825 4.98963L3.57536 5.69674L4.28247 4.98963L3.57536 4.28253L2.86825 4.98963ZM4.28247 2.86831L2.86825 4.28253L3.57536 4.98963L4.98957 3.57542L4.28247 2.86831ZM5.69668 3.57542L4.98957 2.86831L4.28247 3.57542L4.98957 4.28253L5.69668 3.57542ZM7.11089 4.98963L5.69668 3.57542L4.98957 4.28253L6.40379 5.69674L7.11089 4.98963ZM7.818 5.69674L7.11089 4.98963L6.40379 5.69674L7.11089 6.40385L7.818 5.69674ZM6.40379 7.81806L7.818 6.40385L7.11089 5.69674L5.69668 7.11095L6.40379 7.81806ZM18.4246 4.28243L17.7175 4.98954L18.4246 5.69665L19.1317 4.98954L18.4246 4.28243ZM17.0104 3.57533L18.4246 4.98954L19.1317 4.28243L17.7175 2.86822L17.0104 3.57533ZM17.0104 4.28243L17.7175 3.57533L17.0104 2.86822L16.3033 3.57533L17.0104 4.28243ZM15.5962 5.69665L17.0104 4.28243L16.3033 3.57533L14.8891 4.98954L15.5962 5.69665ZM14.8891 6.40375L15.5962 5.69665L14.8891 4.98954L14.182 5.69665L14.8891 6.40375ZM16.3033 7.11086L14.8891 5.69665L14.182 6.40375L15.5962 7.81797L16.3033 7.11086ZM16.3033 6.40375L15.5962 7.11086L16.3033 7.81797L17.0104 7.11086L16.3033 6.40375ZM17.7175 4.98954L16.3033 6.40375L17.0104 7.11086L18.4246 5.69665L17.7175 4.98954ZM7.11089 17.0104L7.818 16.3033L7.11089 15.5962L6.40379 16.3033L7.11089 17.0104ZM5.69668 18.4246L7.11089 17.0104L6.40379 16.3033L4.98957 17.7175L5.69668 18.4246ZM4.98957 19.1317L5.69668 18.4246L4.98957 17.7175L4.28247 18.4246L4.98957 19.1317ZM2.86825 17.7175L4.28246 19.1317L4.98957 18.4246L3.57536 17.0104L2.86825 17.7175ZM3.57536 16.3033L2.86825 17.0104L3.57536 17.7175L4.28246 17.0104L3.57536 16.3033ZM4.98957 14.889L3.57536 16.3033L4.28247 17.0104L5.69668 15.5962L4.98957 14.889ZM5.69668 14.1819L4.98957 14.889L5.69668 15.5962L6.40379 14.889L5.69668 14.1819ZM7.818 15.5962L6.40379 14.1819L5.69668 14.889L7.11089 16.3033L7.818 15.5962ZM11 8.5C9.61929 8.5 8.5 9.61929 8.5 11H9.5C9.5 10.1716 10.1716 9.5 11 9.5V8.5ZM13.5 11C13.5 9.61929 12.3807 8.5 11 8.5V9.5C11.8284 9.5 12.5 10.1716 12.5 11H13.5ZM11 13.5C12.3807 13.5 13.5 12.3807 13.5 11H12.5C12.5 11.8284 11.8284 12.5 11 12.5V13.5ZM8.5 11C8.5 12.3807 9.61929 13.5 11 13.5V12.5C10.1716 12.5 9.5 11.8284 9.5 11H8.5ZM7.5 11C7.5 9.067 9.067 7.5 11 7.5V6.5C8.51472 6.5 6.5 8.51472 6.5 11H7.5ZM11 14.5C9.067 14.5 7.5 12.933 7.5 11H6.5C6.5 13.4853 8.51472 15.5 11 15.5V14.5ZM14.5 11C14.5 12.933 12.933 14.5 11 14.5V15.5C13.4853 15.5 15.5 13.4853 15.5 11H14.5ZM11 7.5C12.933 7.5 14.5 9.067 14.5 11H15.5C15.5 8.51472 13.4853 6.5 11 6.5V7.5Z" fill="black"/>
</svg>
